<?xml version="1.0" encoding="UTF-8"?>
<svg version="1.1" xmlns="http://www.w3.org/2000/svg" width="794" height="645">
<path d="M0 0 C5.34027885 3.14199359 8.61363425 7.4854762 10.5625 13.375 C11.22498186 19.76751977 11.52540308 26.04984898 7.5625 31.375 C3.31941035 35.78340483 0.70270137 38.14695973 -5.4375 39.375 C-5.4375 53.235 -5.4375 67.095 -5.4375 81.375 C-3.4575 82.035 -1.4775 82.695 0.5625 83.375 C4.8063537 86.03667912 8.42032517 89.43752611 10.12109375 94.26171875 C11.45173192 100.6322962 11.8127342 107.06371401 8.4375 112.8125 C4.55496188 118.07695847 1.15530804 121.05643839 -5.4375 122.375 C-5.4375 128.975 -5.4375 135.575 -5.4375 142.375 C-4.055625 142.601875 -2.67375 142.82875 -1.25 143.0625 C5.95450551 144.48484873 12.99363493 147.09056747 19.5625 150.375 C19.5625 149.385 19.5625 148.395 19.5625 147.375 C63.4525 147.375 107.3425 147.375 152.5625 147.375 C153.2225 145.065 153.8825 142.755 154.5625 140.375 C158.25824522 134.98120968 163.22991122 131.78784849 169.5625 130.375 C175.84109898 129.56110754 181.09307018 131.38492122 186.5625 134.375 C190.97268108 137.91571545 193.21028707 142.99759509 194.5625 148.375 C195.15101007 153.86776066 194.43762961 158.64581485 191.5625 163.375 C187.30904061 167.93736984 183.36559486 172.03131291 176.92578125 172.61328125 C169.35493104 172.79746327 163.76634789 172.20254437 158.03515625 166.984375 C154.90505679 163.53672922 154.09296302 160.96638907 152.5625 156.375 C92.6675 156.87 92.6675 156.87 31.5625 157.375 C36.1825 161.335 40.8025 165.295 45.5625 169.375 C55.20109595 179.80736267 69.5625 198.03845779 69.5625 213.375 C75.1725 213.375 80.7825 213.375 86.5625 213.375 C86.8925 211.725 87.2225 210.075 87.5625 208.375 C90.46382339 203.01871067 94.59141786 198.64033479 100.51171875 196.75390625 C108.45535414 195.28622505 114.3882821 196.75397946 121.25 201.0625 C124.43674488 204.24924488 127.5625 208.70332142 127.5625 213.375 C135.8125 213.375 144.0625 213.375 152.5625 213.375 C153.2225 211.065 153.8825 208.755 154.5625 206.375 C158.14153011 200.84377165 162.21501119 198.16841747 168.5625 196.375 C175.34971728 195.34536023 180.97932093 196.30143587 186.5625 200.375 C191.04460086 204.39893055 193.63869914 208.31897211 194.5625 214.375 C194.64527617 221.69477806 193.36337507 227.44882135 188.140625 232.84375 C182.69721986 237.66986178 178.15435009 238.78705832 171.05859375 238.62890625 C165.34154837 238.04736016 160.61607263 235.42857263 156.5625 231.375 C155.2425 228.735 153.9225 226.095 152.5625 223.375 C144.3125 223.375 136.0625 223.375 127.5625 223.375 C125.5825 227.335 125.5825 227.335 123.5625 231.375 C121.5625 233.43359375 121.5625 233.43359375 119.5625 234.8125 C118.9025 235.28558594 118.2425 235.75867188 117.5625 236.24609375 C112.64238159 239.02326996 107.06647808 238.96264277 101.5625 238.375 C95.65069506 236.58199157 91.99421233 233.42163578 88.5625 228.375 C87.9025 226.395 87.2425 224.415 86.5625 222.375 C81.6125 222.375 76.6625 222.375 71.5625 222.375 C71.8925 223.035 72.2225 223.695 72.5625 224.375 C72.82743095 227.00664744 73.03543937 229.61143475 73.1875 232.25 C73.23181152 233.01070801 73.27612305 233.77141602 73.32177734 234.55517578 C73.68550571 241.84662507 73.89249696 249.38500913 71.5625 256.375 C72.55507813 256.34019531 73.54765625 256.30539062 74.5703125 256.26953125 C87.20281839 255.96432265 98.67430687 257.99151566 110.5625 262.375 C111.27148438 262.61089844 111.98046875 262.84679687 112.7109375 263.08984375 C118.82426217 265.19200929 122.82017631 267.6138763 125.875 273.5 C127.5625 277.03507905 127.5625 277.03507905 127.5625 279.375 C146.7025 279.375 165.8425 279.375 185.5625 279.375 C186.2225 277.395 186.8825 275.415 187.5625 273.375 C190.88680389 268.24479048 194.67233363 264.52708773 200.59375 262.7734375 C208.4020546 261.19318538 214.34003147 263.26800135 220.8125 267.5 C225.13013905 272.01389537 227.71391867 277.11883408 228 283.4375 C227.04165222 292.06262999 224.16039411 296.58849897 217.4375 302.125 C212.42390515 305.46739657 206.33547372 304.88114382 200.5625 304.375 C193.85387816 302.62831073 190.01784869 298.19768102 186.5625 292.375 C186.2325 291.385 185.9025 290.395 185.5625 289.375 C166.4225 289.045 147.2825 288.715 127.5625 288.375 C126.0775 298.275 126.0775 298.275 124.5625 308.375 C119.62415013 320.771266 113.6691952 328.98928021 101.25 334.375 C95.50779472 336.58295076 90.45629263 337.5010566 84.3034668 337.48852539 C83.06255783 337.48844986 81.82164886 337.48837433 80.5431366 337.48829651 C79.19933023 337.48319072 77.85552429 337.47797474 76.51171875 337.47265625 C75.12881013 337.47078965 73.74590085 337.46936689 72.36299133 337.46836853 C68.73475294 337.46456237 65.106555 337.45474843 61.47833252 337.44366455 C57.77136787 337.43340945 54.06439664 337.42886215 50.35742188 337.42382812 C43.0924274 337.41312435 35.82747454 337.39554306 28.5625 337.375 C28.5625 344.635 28.5625 351.895 28.5625 359.375 C47.7025 359.375 66.8425 359.375 86.5625 359.375 C86.8925 357.725 87.2225 356.075 87.5625 354.375 C90.67463324 348.18931369 95.14128029 345.03295739 101.5625 342.625 C107.85311137 341.83867358 112.96905366 342.40752952 118.5625 345.375 C123.42517955 349.58932227 127.20636976 353.65598275 127.8359375 360.23046875 C128.06281074 367.67365611 127.6583224 372.73618013 122.5625 378.375 C116.45653714 384.03418509 111.88283783 384.78706632 103.6875 384.61328125 C96.69653877 384.08022046 93.41927421 380.50514315 88.98046875 375.5078125 C87.5625 373.375 87.5625 373.375 86.5625 368.375 C67.4225 368.375 48.2825 368.375 28.5625 368.375 C28.5625 376.625 28.5625 384.875 28.5625 393.375 C30.8725 394.035 33.1825 394.695 35.5625 395.375 C40.55531334 398.71278818 43.62760058 403.22425623 45.18359375 408.98828125 C46.21176264 415.46468526 45.371185 420.63459022 41.9375 426.25 C37.72808937 431.89579719 33.6293299 434.27015093 26.6875 435.3125 C20.55148053 435.67563317 15.4292027 434.59614751 10.515625 430.7890625 C6.22757316 426.73136055 3.87957039 423.28762332 3.2265625 417.2890625 C3.13091349 409.23541554 3.49320403 404.60822496 9.2109375 398.66015625 C12.86507309 395.26930991 14.39236447 394.40902711 19.5625 393.375 C19.5625 385.125 19.5625 376.875 19.5625 368.375 C1.0825 368.375 -17.3975 368.375 -36.4375 368.375 C-36.4375 391.805 -36.4375 415.235 -36.4375 439.375 C-34.7875 439.705 -33.1375 440.035 -31.4375 440.375 C-26.62520822 442.70611015 -23.23783175 446.03336884 -21.1015625 450.9375 C-19.51016498 456.77886503 -19.19152644 463.14261776 -21.390625 468.84765625 C-24.77888772 474.5841137 -29.1211149 478.21485098 -35.4375 480.375 C-42.3219583 481.27710143 -48.06892932 481.06696707 -53.75390625 476.859375 C-58.50147715 472.67358163 -61.36672574 468.79964558 -62.4375 462.375 C-62.63311147 455.34449379 -61.22615537 449.65539993 -56.4375 444.375 C-52.9260892 441.56176445 -50.01385986 439.375 -45.4375 439.375 C-45.4375 415.945 -45.4375 392.515 -45.4375 368.375 C-53.6875 368.375 -61.9375 368.375 -70.4375 368.375 C-70.4375 358.145 -70.4375 347.915 -70.4375 337.375 C-81.3275 337.375 -92.2175 337.375 -103.4375 337.375 C-103.1075 351.235 -102.7775 365.095 -102.4375 379.375 C-99.7975 380.695 -97.1575 382.015 -94.4375 383.375 C-92.37890625 385.41015625 -92.37890625 385.41015625 -91 387.4375 C-90.52691406 388.10910156 -90.05382812 388.78070313 -89.56640625 389.47265625 C-86.62772015 394.42469823 -86.90310414 399.80201462 -87.4375 405.375 C-89.20220792 411.60463158 -93.11788282 415.83634874 -98.4375 419.375 C-104.29511706 422.1168633 -110.36887815 422.21315065 -116.5 420.375 C-122.20952021 418.01010997 -125.75192843 413.15985737 -128.875 408 C-130.5035153 400.40026194 -129.7875973 394.40927587 -125.99609375 387.578125 C-122.30941733 382.36688314 -118.62502925 380.61250585 -112.4375 379.375 C-112.4375 365.515 -112.4375 351.655 -112.4375 337.375 C-129.5975 337.375 -146.7575 337.375 -164.4375 337.375 C-164.4375 352.885 -164.4375 368.395 -164.4375 384.375 C-184.8975 384.705 -205.3575 385.035 -226.4375 385.375 C-227.7575 388.015 -229.0775 390.655 -230.4375 393.375 C-237.0987077 399.75865737 -241.76260225 400.95870028 -250.87890625 400.81640625 C-256.2255744 400.15320811 -259.67211969 398.17355546 -263.4375 394.375 C-267.87707652 388.49690148 -269.24488728 382.58462728 -268.4375 375.375 C-266.66368801 369.11090966 -263.96771139 364.99090744 -258.4375 361.375 C-252.46300388 358.07872628 -247.04231636 357.7993412 -240.4375 359.375 C-235.06067418 361.39651978 -231.70694285 364.79778001 -228.4375 369.375 C-227.7775 371.025 -227.1175 372.675 -226.4375 374.375 C-208.9475 374.705 -191.4575 375.035 -173.4375 375.375 C-173.4375 362.835 -173.4375 350.295 -173.4375 337.375 C-176.18578125 337.40980469 -178.9340625 337.44460938 -181.765625 337.48046875 C-184.46646082 337.50395326 -187.16728469 337.52211901 -189.86816406 337.53979492 C-191.72628989 337.55475905 -193.58438117 337.57513773 -195.44238281 337.60131836 C-210.70187037 337.8107462 -224.07582607 337.4770131 -236.4375 327.375 C-245.79207109 318.00470694 -249.5245269 307.57233213 -249.5703125 294.5234375 C-249.43660982 292.36060002 -249.03039685 290.45484449 -248.4375 288.375 C-257.938472 287.69449105 -257.938472 287.69449105 -266.14453125 291.01171875 C-267.03735073 293.05856135 -267.03735073 293.05856135 -267.66796875 295.23828125 C-269.04470472 299.06099483 -272.13810895 301.18021908 -275.4375 303.375 C-281.29511706 306.1168633 -287.36887815 306.21315065 -293.5 304.375 C-298.35091625 302.36574475 -301.5352397 298.65779493 -304.4375 294.375 C-305.0975 292.725 -305.7575 291.075 -306.4375 289.375 C-314.6875 289.045 -322.9375 288.715 -331.4375 288.375 C-331.7675 290.355 -332.0975 292.335 -332.4375 294.375 C-335.4351507 299.26041175 -339.74650937 303.29527038 -345.3203125 304.92578125 C-351.66518186 306.27201737 -356.98645297 305.78451472 -362.65234375 302.57421875 C-367.37729972 299.4001236 -370.57925837 295.7541205 -372.4375 290.375 C-373.18429469 283.91795812 -373.1822063 277.85381476 -369.84765625 272.12890625 C-366.55716461 268.0363003 -362.40318436 265.03022812 -357.4375 263.375 C-350.2960353 262.67123692 -344.30832609 262.99110803 -338.4375 267.375 C-334.22296688 271.25825977 -332.58929694 273.61601532 -331.4375 279.375 C-322.8575 279.375 -314.2775 279.375 -305.4375 279.375 C-305.1075 277.725 -304.7775 276.075 -304.4375 274.375 C-302.08610161 269.52082563 -298.74746708 266.19182873 -293.80859375 264.03515625 C-287.66804964 262.32551547 -280.98885606 262.34886156 -275.0625 264.8125 C-270.52882978 267.44923707 -267.6988336 271.72384793 -265.4375 276.375 C-265.4375 277.365 -265.4375 278.355 -265.4375 279.375 C-262.22708279 279.43983872 -259.02318508 279.41518938 -255.8125 279.375 C-254.90886719 279.39433594 -254.00523437 279.41367187 -253.07421875 279.43359375 C-247.85226019 279.34784444 -247.85226019 279.34784444 -243.56445312 276.65698242 C-242.05201031 274.62340441 -240.75589893 272.53730654 -239.4375 270.375 C-231.25600073 260.60663375 -221.8706835 257.68067914 -209.4375 256.375 C-209.22996094 255.37082031 -209.02242187 254.36664063 -208.80859375 253.33203125 C-206.31114143 241.99390417 -202.48716042 232.77454722 -195.4375 223.375 C-200.3875 223.375 -205.3375 223.375 -210.4375 223.375 C-210.953125 224.57125 -211.46875 225.7675 -212 227 C-214.60838308 232.16185284 -218.00653592 235.85557305 -223.3515625 238.22265625 C-229.31377685 240.01607132 -235.22093948 239.91605311 -240.8671875 237.2109375 C-246.07949707 234.0151936 -249.00364494 230.98344862 -251.4375 225.375 C-251.4375 224.385 -251.4375 223.395 -251.4375 222.375 C-263.8125 222.87 -263.8125 222.87 -276.4375 223.375 C-277.7575 226.015 -279.0775 228.655 -280.4375 231.375 C-285.23697684 236.39770832 -290.79273521 239.10642517 -297.734375 239.5078125 C-304.82598414 239.09209748 -309.98630886 235.9552012 -314.8125 230.875 C-318.7065687 224.88412507 -319.22354056 219.38058649 -318.4375 212.375 C-316.41459423 205.5591868 -312.34790583 201.98193722 -306.5625 198.125 C-300.37659023 195.94173773 -294.46972079 195.80809754 -288.4375 198.375 C-283.73713504 201.1766538 -279.61327112 204.20754359 -277.4375 209.375 C-277.4375 210.695 -277.4375 212.015 -277.4375 213.375 C-268.8575 213.375 -260.2775 213.375 -251.4375 213.375 C-251.1075 211.725 -250.7775 210.075 -250.4375 208.375 C-247.60739533 202.53259508 -243.46899093 199.50104278 -237.4375 197.375 C-230.54938879 195.6529722 -225.28031337 196.78958485 -219.1875 200.1875 C-214.73836771 203.72658251 -212.43961978 207.11504497 -210.4375 212.375 C-206.31325151 212.58062492 -202.19034074 212.70340389 -198.0625 212.8125 C-196.90621094 212.87115234 -195.74992188 212.92980469 -194.55859375 212.99023438 C-185.64460918 213.16649961 -181.22114783 210.94462353 -174.4375 205.375 C-165.11941005 200.23564111 -155.06788448 196.98509163 -144.4375 196.375 C-143.37208984 196.29572266 -143.37208984 196.29572266 -142.28515625 196.21484375 C-133.56595266 195.87203745 -124.97528113 197.81253025 -116.4375 199.375 C-113.41714118 194.31879978 -112.97224742 190.41215084 -112.92578125 184.6953125 C-112.90082581 183.61334595 -112.90082581 183.61334595 -112.87536621 182.50952148 C-112.81795502 179.83997124 -112.78541116 177.1699327 -112.75 174.5 C-112.646875 168.51875 -112.54375 162.5375 -112.4375 156.375 C-131.5775 156.705 -150.7175 157.035 -170.4375 157.375 C-172.4175 161.335 -172.4175 161.335 -174.4375 165.375 C-179.66338061 170.48969166 -184.07847844 172.6593281 -191.375 172.6875 C-197.77176097 172.56207331 -201.30548612 171.25910529 -206.125 167 C-210.96991251 161.50036958 -212.84785619 156.9423776 -212.7109375 149.58984375 C-211.99007054 143.75082135 -209.42409457 138.91706727 -205.125 134.9375 C-199.78394734 130.82636991 -194.08269989 129.79208773 -187.4375 130.375 C-181.31982387 131.59853523 -177.89218514 134.47314591 -173.8828125 139.14453125 C-172.4375 141.375 -172.4375 141.375 -170.4375 147.375 C-148.3275 147.375 -126.2175 147.375 -103.4375 147.375 C-103.1075 156.945 -102.7775 166.515 -102.4375 176.375 C-99.4675 173.075 -96.4975 169.775 -93.4375 166.375 C-91.16312953 164.75490852 -88.84514191 163.19222564 -86.46801758 161.72705078 C-82.9073275 159.22538213 -80.70286818 157.16167696 -79.27182007 152.91937256 C-78.83951289 148.80006382 -78.81314867 144.87235436 -78.94921875 140.7421875 C-78.95103143 139.25431947 -78.94709251 137.76643445 -78.93769836 136.27859497 C-78.92839533 132.39354274 -78.99631326 128.51368045 -79.08129883 124.62969971 C-79.15430293 120.65434083 -79.15296578 116.67904846 -79.15820312 112.703125 C-79.17924714 104.9252908 -79.28200584 97.15143292 -79.4375 89.375 C-80.53835938 89.0759375 -81.63921875 88.776875 -82.7734375 88.46875 C-88.71679548 86.69461329 -91.29990122 84.0175104 -94.25 78.6875 C-97.0212933 72.6786323 -97.75533434 68.0165259 -95.48046875 61.73046875 C-92.37579565 54.99874898 -89.14579249 51.29266337 -82.1875 48.5625 C-76.02772412 46.70024218 -70.43016018 47.10415991 -64.6875 50.0625 C-60.09146831 53.33275332 -56.60082911 57.07627318 -54.4375 62.375 C-53.53466834 69.72362979 -53.89751163 76.33569449 -58.4375 82.375 C-62.02458141 86.3147439 -65.25049179 87.64599726 -70.4375 89.375 C-70.4375 109.505 -70.4375 129.635 -70.4375 150.375 C-65.4875 148.395 -60.5375 146.415 -55.4375 144.375 C-41.84166622 139.79818467 -28.65068423 139.94538234 -14.4375 140.375 C-14.4375 134.435 -14.4375 128.495 -14.4375 122.375 C-16.0875 122.045 -17.7375 121.715 -19.4375 121.375 C-25.55719135 118.28666414 -28.65243584 114.25842411 -30.81640625 107.82421875 C-32.45971211 101.34401263 -31.29452184 96.23746039 -28.4375 90.375 C-25.48373417 85.56145568 -21.59486883 83.37320134 -16.4375 81.375 C-15.7775 81.375 -15.1175 81.375 -14.4375 81.375 C-14.4375 67.515 -14.4375 53.655 -14.4375 39.375 C-16.4175 39.045 -18.3975 38.715 -20.4375 38.375 C-25.64912064 35.49109925 -28.65811367 31.13138423 -30.78125 25.66796875 C-32.3744695 20.10118396 -31.8843899 14.75237633 -29.69140625 9.40234375 C-23.30021147 -0.93108333 -11.26541158 -5.18122937 0 0 Z M-20.4375 12.375 C-22.33561091 15.51100933 -22.44428943 17.18489602 -22.3125 20.875 C-21.34084639 24.76161446 -20.29616648 26.59574092 -17.4375 29.375 C-14.37551565 31.19563934 -12.58308973 31.37764709 -9 31.3125 C-4.53283368 30.13692992 -2.71898461 28.57835403 0.5625 25.375 C2.1699907 22.16001861 2.03564549 18.86201742 1.5625 15.375 C-0.04673497 12.27147542 -1.44097267 10.15798576 -4.1875 8 C-11.49062431 5.97135436 -15.4027286 6.98060208 -20.4375 12.375 Z M-83.4375 59.375 C-86.04821067 62.0278189 -87.2876475 64.7297444 -87.625 68.43359375 C-87.38186619 72.45289961 -86.63234581 74.14018582 -84 77.3125 C-80.07935243 80.46814317 -77.61451186 80.71551701 -72.6953125 80.66015625 C-69.32373144 80.23433373 -67.69729257 78.84022826 -65.4375 76.375 C-62.91268846 72.88835549 -63.00275978 69.57748882 -63.4375 65.375 C-65.35686175 61.38272756 -67.12164193 59.26279553 -71.125 57.5 C-75.86424821 55.89044401 -79.06297941 56.98427363 -83.4375 59.375 Z M-21.875 97.1875 C-22.78312006 100.71907801 -22.48395101 103.9347068 -21.4375 107.375 C-18.9173217 110.784653 -16.93026105 112.15599509 -13.0625 113.875 C-8.48702189 114.50610043 -6.39976464 113.69255102 -2.4375 111.375 C0.87787959 108.39965934 1.49673584 106.8928928 2.0625 102.4375 C1.84671111 98.20963627 0.27829568 95.63395481 -2.4375 92.375 C-10.1280619 87.24795873 -16.61957224 90.56109109 -21.875 97.1875 Z M-200.4375 143.375 C-202.86453749 146.78802146 -203.4375 148.68725043 -203.4375 152.875 C-202.1870584 157.2515456 -200.5984517 159.13695192 -197.4375 162.375 C-194.22251861 163.9824907 -190.92451742 163.84814549 -187.4375 163.375 C-184.33397542 161.76576503 -182.22048576 160.37152733 -180.0625 157.625 C-178.91162421 153.48184716 -178.32674952 149.46798438 -180.3828125 145.59375 C-182.94009602 142.31270699 -185.42534855 140.40375678 -189.4375 139.375 C-194.04546038 139.375 -196.87114457 140.5992583 -200.4375 143.375 Z M163.1875 144.5625 C161.07871278 148.21232403 160.76639038 151.30687985 161.5625 155.375 C163.17173497 158.47852458 164.56597267 160.59201424 167.3125 162.75 C171.45565284 163.90087579 175.46951562 164.48575048 179.34375 162.4296875 C182.62036073 159.87585855 184.69293247 157.43298179 185.5625 153.375 C185.48408281 148.98363726 185.06061642 146.98081726 182.25 143.5625 C175.3914608 137.97996809 169.81417921 138.45897968 163.1875 144.5625 Z M97.5625 209.375 C95.15785447 213.28254898 94.19581234 216.08739162 95.0625 220.5625 C96.25632819 224.41259593 98.11879657 226.22268536 101.5625 228.375 C104.67203379 229.9297669 107.12516761 229.66144437 110.5625 229.375 C113.61607079 227.76179279 115.80083566 226.34439098 117.9375 223.625 C119.22166889 219.00199199 119.1973239 214.96205974 117.4375 210.5625 C114.36218119 206.97462806 111.19792281 205.61349916 106.5625 204.9375 C102.57938451 205.51837101 100.60223879 206.74055971 97.5625 209.375 Z M162.6875 210.5625 C160.78664328 215.3146418 160.78664328 219.4353582 162.6875 224.1875 C165.76281881 227.77537194 168.92707719 229.13650084 173.5625 229.8125 C177.50915429 229.23694625 179.52293437 227.94174431 182.5625 225.375 C184.94871552 221.91113876 185.57399219 220.03005456 185.5 215.8125 C184.28147365 211.34457005 182.48368047 208.71982633 178.6875 206.0625 C172.45502915 204.04611237 166.95350079 205.58549907 162.6875 210.5625 Z M-307.4375 210.375 C-309.96231154 213.86164451 -309.87224022 217.17251118 -309.4375 221.375 C-307.5080446 225.38826724 -305.94490871 227.06864002 -302.125 229.375 C-297.64441629 230.59007355 -295.65802427 230.25078856 -291.4375 228.375 C-288.90064312 226.1690375 -286.94261778 224.38523556 -285.4375 221.375 C-285.3028485 216.4794562 -285.74453891 213.22787519 -288.875 209.375 C-292.81293672 206.30148842 -295.2887504 206.03480105 -300.1796875 206.08984375 C-303.55126856 206.51566627 -305.17770743 207.90977174 -307.4375 210.375 Z M-242.4375 212.375 C-243.86303195 215.85105081 -243.88626999 218.73060192 -242.90234375 222.3359375 C-241.15519214 226.18779733 -239.03569878 227.92903553 -235.125 229.5 C-231.6124877 230.4301225 -230.30617121 230.34270603 -226.625 229.4375 C-222.9556197 227.0631951 -221.33000267 225.31140556 -219.4375 221.375 C-218.80966142 216.98012993 -219.11060792 214.97242345 -221.25 211.0625 C-223.41456662 208.4031753 -225.01336379 206.6620352 -228.453125 205.96875 C-234.72284027 205.70568502 -238.69304168 207.17252252 -242.4375 212.375 Z M196.75 275.875 C193.99142044 279.35952155 194.20348885 283.13866844 194.5625 287.375 C196.17570721 290.42857079 197.59310902 292.61333566 200.3125 294.75 C204.45678424 295.90119007 208.49291095 296.51418169 212.34375 294.39453125 C215.17159085 292.14196194 217.65516449 289.90352698 218.5625 286.375 C218.38296064 280.71951014 217.82580689 277.40145651 213.5625 273.375 C207.23007789 270.05047839 202.14324809 271.41162227 196.75 275.875 Z M-361.4375 276.375 C-363.76800995 279.34110357 -363.91467205 282.61429081 -363.82421875 286.34375 C-363.00129105 290.66619854 -359.9863972 293.14656429 -356.625 295.8125 C-353.11663472 296.71465107 -349.87753033 296.31878566 -346.4375 295.375 C-343.42638611 293.54214807 -341.85640823 292.07952748 -340.0625 289.0625 C-339.09838616 284.91681047 -339.22637116 281.32942092 -341.51953125 277.62890625 C-343.67216003 274.9169842 -345.11941089 273.4810297 -348.4375 272.375 C-354.12556747 271.83838986 -357.04453301 272.69716717 -361.4375 276.375 Z M-296.4375 278.375 C-298.12848046 283.02519626 -297.94690922 286.27467609 -295.875 290.75 C-293.14004148 293.69533994 -291.25297476 295.10317508 -287.4375 296.375 C-282.13864083 296.28203756 -279.18242906 295.11992906 -275.4375 291.375 C-273.11472085 287.5885518 -273.23973101 284.86412534 -273.8203125 280.56640625 C-274.7730405 277.18361884 -276.72428974 275.49262752 -279.4375 273.375 C-286.1491452 270.0191774 -292.33438378 272.60941427 -296.4375 278.375 Z M-61.4375 337.375 C-61.4375 344.635 -61.4375 351.895 -61.4375 359.375 C-34.7075 359.375 -7.9775 359.375 19.5625 359.375 C19.5625 352.115 19.5625 344.855 19.5625 337.375 C-7.1675 337.375 -33.8975 337.375 -61.4375 337.375 Z M99.5625 354.375 C96.52970886 357.48975847 94.66754792 359.96298745 94.5625 364.375 C96.16342383 369.44459213 97.82275267 372.79905036 102.5625 375.375 C106.43893254 376.13452283 109.93014264 376.29468575 113.44140625 374.31640625 C116.27112388 372.01853916 118.32183911 370.09400637 118.8359375 366.421875 C119.01983995 362.26285037 119.02022237 359.29585442 116.375 355.9375 C110.55325225 350.63324094 106.28311537 350.39749295 99.5625 354.375 Z M-255.4375 370.375 C-257.95555065 373.06376595 -259.28680138 375.75422095 -259.62890625 379.43359375 C-259.37820752 383.45237029 -258.63301412 385.13938042 -256 388.3125 C-252.07935243 391.46814317 -249.61451186 391.71551701 -244.6953125 391.66015625 C-241.32373144 391.23433373 -239.69729257 389.84022826 -237.4375 387.375 C-234.91268846 383.88835549 -235.00275978 380.57748882 -235.4375 376.375 C-237.33916532 372.41953613 -239.10142313 370.26966691 -243.0625 368.5 C-247.9243218 366.87939273 -251.11343711 367.66525392 -255.4375 370.375 Z M-119.4375 394.375 C-121.12848046 399.02519626 -120.94690922 402.27467609 -118.875 406.75 C-116.14004148 409.69533994 -114.25297476 411.10317508 -110.4375 412.375 C-105.13864083 412.28203756 -102.18242906 411.11992906 -98.4375 407.375 C-95.91736255 403.89481019 -96.06956106 400.56950396 -96.4375 396.375 C-98.22867532 392.22701505 -100.27242576 390.1335869 -104.4375 388.375 C-111.12779303 387.40382843 -115.40666425 388.7109808 -119.4375 394.375 Z M13.5625 407.375 C11.81412025 410.8717595 12.00461432 414.55957492 12.5625 418.375 C14.39061772 422.26897273 17.04891113 424.13722737 20.9375 425.9375 C25.49340253 426.4873503 27.62254971 425.67949923 31.5625 423.375 C34.63937285 420.29812715 36.45751837 417.78422851 36.5625 413.375 C34.96157617 408.30540787 33.30224733 404.95094964 28.5625 402.375 C21.84783165 401.05937182 18.19896787 402.50670874 13.5625 407.375 Z M-50.4375 451.375 C-52.54816122 454.93674081 -53.4375 457.30051805 -53.4375 461.4375 C-52.0983215 465.37133684 -50.34611413 467.39713316 -47.4375 470.375 C-43.81819302 471.58143566 -41.24518995 471.69768559 -37.4375 471.375 C-34.38392921 469.76179279 -32.19916434 468.34439098 -30.0625 465.625 C-28.91130993 461.48071576 -28.29831831 457.44458905 -30.41796875 453.59375 C-33.41632065 449.82966515 -36.04971261 447.76220877 -40.75 447 C-44.55758494 447.53129092 -47.52145216 448.92580711 -50.4375 451.375 Z " fill="#F6559B" transform="translate(453.4375,82.625)"/>
</svg>
